<svg xmlns="http://www.w3.org/2000/svg" xmlns:xlink="http://www.w3.org/1999/xlink" version="1.1" class="marks" width="1368" height="985" viewBox="0 0 1368 985"><rect width="1368" height="985" fill="white"/><g fill="none" stroke-miterlimit="10" transform="translate(83,122)"><g class="mark-group role-frame root" role="graphics-object" aria-roledescription="group mark container"><g transform="translate(0,0)"><path class="background" aria-hidden="true" d="M0,0h0v0h0Z"/><g><g class="mark-group role-column-title facet-title" role="graphics-object" aria-roledescription="group mark container"><g transform="translate(548,-79)"><path class="background" aria-hidden="true" d="M0,0h0v0h0Z"/><g><g class="mark-group role-title"><g transform="translate(0,-21)"><path class="background" aria-hidden="true" d="M0,0h0v0h0Z" pointer-events="none"/><g><g class="mark-text role-title-text" role="graphics-symbol" aria-roledescription="title" aria-label="Title text 'province'" pointer-events="none"><text text-anchor="middle" transform="translate(0,9)" font-family="sans-serif" font-size="11px" font-weight="bold" fill="#000" opacity="1">province</text></g></g><path class="foreground" aria-hidden="true" d="" pointer-events="none" display="none"/></g></g></g><path class="foreground" aria-hidden="true" d="" display="none"/></g></g><g class="mark-group role-scope cell" role="graphics-object" aria-roledescription="group mark container"><g transform="translate(0,0)"><path class="background" aria-hidden="true" d="M0,0h150v150h-150Z"/><g><g class="mark-arc role-mark child_layer_0_marks" role="graphics-object" aria-roledescription="arc mark container"><path aria-label="value: 0.58; Metric: coordination" role="graphics-symbol" aria-roledescription="arc mark" transform="translate(75,75)" d="M6.855,119.804A120,120,0,0,0,114.348,36.393L0,0Z" fill="#f58518"/><path aria-label="value: 0.666; Metric: waiting_time" role="graphics-symbol" aria-roledescription="arc mark" transform="translate(75,75)" d="M0,-120A120,120,0,0,0,-117.918,-22.255L0,0Z" fill="#54a24b"/><path aria-label="value: 0.904; Metric: care_access" role="graphics-symbol" aria-roledescription="arc mark" transform="translate(75,75)" d="M114.348,36.393A120,120,0,0,0,0,-120L0,0Z" fill="#4c78a8"/><path aria-label="value: 0.873; Metric: provider_access" role="graphics-symbol" aria-roledescription="arc mark" transform="translate(75,75)" d="M-117.918,-22.255A120,120,0,0,0,6.855,119.804L0,0Z" fill="#e45756"/></g><g class="mark-text role-mark child_layer_1_marks" role="graphics-object" aria-roledescription="text mark container"><text aria-label="value: 0.58; Metric: coordination" role="graphics-symbol" aria-roledescription="text mark" text-anchor="middle" transform="translate(160.8265296109596,188.6065405613026)" font-family="sans-serif" font-size="10px" fill="#f58518">0.58</text><text aria-label="value: 0.666; Metric: waiting_time" role="graphics-symbol" aria-roledescription="text mark" text-anchor="middle" transform="translate(-14.344693427072258,-29.784626716533523)" font-family="sans-serif" font-size="10px" fill="#54a24b">0.666</text><text aria-label="value: 0.904; Metric: care_access" role="graphics-symbol" aria-roledescription="text mark" text-anchor="middle" transform="translate(188.0138624986949,-4.630907553566701)" font-family="sans-serif" font-size="10px" fill="#4c78a8">0.904</text><text aria-label="value: 0.873; Metric: provider_access" role="graphics-symbol" aria-roledescription="text mark" text-anchor="middle" transform="translate(-30.1875941052008,170.38814884150202)" font-family="sans-serif" font-size="10px" fill="#e45756">0.873</text></g><g class="mark-group role-title"><g transform="translate(75,-65)"><path class="background" aria-hidden="true" d="M0,0h0v0h0Z" pointer-events="none"/><g><g class="mark-text role-title-text" role="graphics-symbol" aria-roledescription="title" aria-label="Title text 'Alberta'" pointer-events="none"><text text-anchor="middle" transform="translate(0,8)" font-family="sans-serif" font-size="10px" fill="#000" opacity="1">Alberta</text></g></g><path class="foreground" aria-hidden="true" d="" pointer-events="none" display="none"/></g></g></g><path class="foreground" aria-hidden="true" d="" display="none"/></g><g transform="translate(319,0)"><path class="background" aria-hidden="true" d="M0,0h150v150h-150Z"/><g><g class="mark-arc role-mark child_layer_0_marks" role="graphics-object" aria-roledescription="arc mark container"><path aria-label="value: 0.542; Metric: coordination" role="graphics-symbol" aria-roledescription="arc mark" transform="translate(75,75)" d="M86.139,83.547A120,120,0,0,0,119.237,-13.509L0,0Z" fill="#f58518"/><path aria-label="value: 0.626; Metric: waiting_time" role="graphics-symbol" aria-roledescription="arc mark" transform="translate(75,75)" d="M0,-120A120,120,0,0,0,-102.239,-62.827L0,0Z" fill="#54a24b"/><path aria-label="value: 0.895; Metric: care_access" role="graphics-symbol" aria-roledescription="arc mark" transform="translate(75,75)" d="M119.237,-13.509A120,120,0,0,0,0,-120L0,0Z" fill="#4c78a8"/><path aria-label="value: 0.849; Metric: provider_access" role="graphics-symbol" aria-roledescription="arc mark" transform="translate(75,75)" d="M-66.002,100.219A120,120,0,0,0,86.139,83.547L0,0Z" fill="#e45756"/><path aria-label="value: 0.945; Metric: unmet_needs" role="graphics-symbol" aria-roledescription="arc mark" transform="translate(75,75)" d="M-102.239,-62.827A120,120,0,0,0,-66.002,100.219L0,0Z" fill="#72b7b2"/></g><g class="mark-text role-mark child_layer_1_marks" role="graphics-object" aria-roledescription="text mark container"><text aria-label="value: 0.542; Metric: coordination" role="graphics-symbol" aria-roledescription="text mark" text-anchor="middle" transform="translate(207.50670489714878,123.18819710167608)" font-family="sans-serif" font-size="10px" fill="#f58518">0.542</text><text aria-label="value: 0.626; Metric: waiting_time" role="graphics-symbol" aria-roledescription="text mark" text-anchor="middle" transform="translate(6.668902650000732,-44.19190290254474)" font-family="sans-serif" font-size="10px" fill="#54a24b">0.626</text><text aria-label="value: 0.895; Metric: care_access" role="graphics-symbol" aria-roledescription="text mark" text-anchor="middle" transform="translate(168.2566312996117,-26.418392626243218)" font-family="sans-serif" font-size="10px" fill="#4c78a8">0.895</text><text aria-label="value: 0.849; Metric: provider_access" role="graphics-symbol" aria-roledescription="text mark" text-anchor="middle" transform="translate(90.25002148409459,217.16693876325172)" font-family="sans-serif" font-size="10px" fill="#e45756">0.849</text><text aria-label="value: 0.945; Metric: unmet_needs" role="graphics-symbol" aria-roledescription="text mark" text-anchor="middle" transform="translate(-61.6653103849151,108.37421500870124)" font-family="sans-serif" font-size="10px" fill="#72b7b2">0.945</text></g><g class="mark-group role-title"><g transform="translate(75,-72.19190290254474)"><path class="background" aria-hidden="true" d="M0,0h0v0h0Z" pointer-events="none"/><g><g class="mark-text role-title-text" role="graphics-symbol" aria-roledescription="title" aria-label="Title text 'BritishColumbia'" pointer-events="none"><text text-anchor="middle" transform="translate(0,8)" font-family="sans-serif" font-size="10px" fill="#000" opacity="1">BritishColumbia</text></g></g><path class="foreground" aria-hidden="true" d="" pointer-events="none" display="none"/></g></g></g><path class="foreground" aria-hidden="true" d="" display="none"/></g><g transform="translate(638,0)"><path class="background" aria-hidden="true" d="M0,0h150v150h-150Z"/><g><g class="mark-arc role-mark child_layer_0_marks" role="graphics-object" aria-roledescription="arc mark container"><path aria-label="value: 0.6; Metric: coordination" role="graphics-symbol" aria-roledescription="arc mark" transform="translate(75,75)" d="M84.146,85.554A120,120,0,0,0,118.58,-18.407L0,0Z" fill="#f58518"/><path aria-label="value: 0.627; Metric: waiting_time" role="graphics-symbol" aria-roledescription="arc mark" transform="translate(75,75)" d="M0,-120A120,120,0,0,0,-100.345,-65.809L0,0Z" fill="#54a24b"/><path aria-label="value: 0.897; Metric: care_access" role="graphics-symbol" aria-roledescription="arc mark" transform="translate(75,75)" d="M118.58,-18.407A120,120,0,0,0,0,-120L0,0Z" fill="#4c78a8"/><path aria-label="value: 0.888; Metric: provider_access" role="graphics-symbol" aria-roledescription="arc mark" transform="translate(75,75)" d="M-70.258,97.282A120,120,0,0,0,84.146,85.554L0,0Z" fill="#e45756"/><path aria-label="value: 0.966; Metric: unmet_needs" role="graphics-symbol" aria-roledescription="arc mark" transform="translate(75,75)" d="M-100.345,-65.809A120,120,0,0,0,-70.258,97.282L0,0Z" fill="#72b7b2"/></g><g class="mark-text role-mark child_layer_1_marks" role="graphics-object" aria-roledescription="text mark container"><text aria-label="value: 0.6; Metric: coordination" role="graphics-symbol" aria-roledescription="text mark" text-anchor="middle" transform="translate(207.89976516192135,122.01877349388737)" font-family="sans-serif" font-size="10px" fill="#f58518">0.6</text><text aria-label="value: 0.627; Metric: waiting_time" role="graphics-symbol" aria-roledescription="text mark" text-anchor="middle" transform="translate(8.47486392252442,-45.18444004773232)" font-family="sans-serif" font-size="10px" fill="#54a24b">0.627</text><text aria-label="value: 0.897; Metric: care_access" role="graphics-symbol" aria-roledescription="text mark" text-anchor="middle" transform="translate(166.0865620285939,-28.31668833165898)" font-family="sans-serif" font-size="10px" fill="#4c78a8">0.897</text><text aria-label="value: 0.888; Metric: provider_access" role="graphics-symbol" aria-roledescription="text mark" text-anchor="middle" transform="translate(85.60396370814614,217.5978364935371)" font-family="sans-serif" font-size="10px" fill="#e45756">0.888</text><text aria-label="value: 0.966; Metric: unmet_needs" role="graphics-symbol" aria-roledescription="text mark" text-anchor="middle" transform="translate(-62.67679582232461,103.39881674602067)" font-family="sans-serif" font-size="10px" fill="#72b7b2">0.966</text></g><g class="mark-group role-title"><g transform="translate(75,-73.18444004773232)"><path class="background" aria-hidden="true" d="M0,0h0v0h0Z" pointer-events="none"/><g><g class="mark-text role-title-text" role="graphics-symbol" aria-roledescription="title" aria-label="Title text 'Man.'" pointer-events="none"><text text-anchor="middle" transform="translate(0,8)" font-family="sans-serif" font-size="10px" fill="#000" opacity="1">Man.</text></g></g><path class="foreground" aria-hidden="true" d="" pointer-events="none" display="none"/></g></g></g><path class="foreground" aria-hidden="true" d="" display="none"/></g><g transform="translate(957,0)"><path class="background" aria-hidden="true" d="M0,0h150v150h-150Z"/><g><g class="mark-arc role-mark child_layer_0_marks" role="graphics-object" aria-roledescription="arc mark container"><path aria-label="value: 0.671; Metric: coordination" role="graphics-symbol" aria-roledescription="arc mark" transform="translate(75,75)" d="M70.869,96.838A120,120,0,0,0,119.2,-13.831L0,0Z" fill="#f58518"/><path aria-label="value: 0.511; Metric: waiting_time" role="graphics-symbol" aria-roledescription="arc mark" transform="translate(75,75)" d="M0,-120A120,120,0,0,0,-86.34,-83.339L0,0Z" fill="#54a24b"/><path aria-label="value: 0.926; Metric: care_access" role="graphics-symbol" aria-roledescription="arc mark" transform="translate(75,75)" d="M119.2,-13.831A120,120,0,0,0,0,-120L0,0Z" fill="#4c78a8"/><path aria-label="value: 0.928; Metric: provider_access" role="graphics-symbol" aria-roledescription="arc mark" transform="translate(75,75)" d="M-88.28,81.281A120,120,0,0,0,70.869,96.838L0,0Z" fill="#e45756"/><path aria-label="value: 0.962; Metric: unmet_needs" role="graphics-symbol" aria-roledescription="arc mark" transform="translate(75,75)" d="M-86.34,-83.339A120,120,0,0,0,-88.28,81.281L0,0Z" fill="#72b7b2"/></g><g class="mark-text role-mark child_layer_1_marks" role="graphics-object" aria-roledescription="text mark container"><text aria-label="value: 0.671; Metric: coordination" role="graphics-symbol" aria-roledescription="text mark" text-anchor="middle" transform="translate(203.29880638156794,134.03049420685971)" font-family="sans-serif" font-size="10px" fill="#f58518">0.671</text><text aria-label="value: 0.511; Metric: waiting_time" role="graphics-symbol" aria-roledescription="text mark" text-anchor="middle" transform="translate(20.283015135452374,-50.86446976313084)" font-family="sans-serif" font-size="10px" fill="#54a24b">0.511</text><text aria-label="value: 0.926; Metric: care_access" role="graphics-symbol" aria-roledescription="text mark" text-anchor="middle" transform="translate(168.11554702379706,-26.544224625079295)" font-family="sans-serif" font-size="10px" fill="#4c78a8">0.926</text><text aria-label="value: 0.928; Metric: provider_access" role="graphics-symbol" aria-roledescription="text mark" text-anchor="middle" transform="translate(61.38024252102552,217.3359329326571)" font-family="sans-serif" font-size="10px" fill="#e45756">0.928</text><text aria-label="value: 0.962; Metric: unmet_needs" role="graphics-symbol" aria-roledescription="text mark" text-anchor="middle" transform="translate(-64.99027499807659,76.3498769855282)" font-family="sans-serif" font-size="10px" fill="#72b7b2">0.962</text></g><g class="mark-group role-title"><g transform="translate(75,-78.86446976313084)"><path class="background" aria-hidden="true" d="M0,0h0v0h0Z" pointer-events="none"/><g><g class="mark-text role-title-text" role="graphics-symbol" aria-roledescription="title" aria-label="Title text 'N.B.'" pointer-events="none"><text text-anchor="middle" transform="translate(0,8)" font-family="sans-serif" font-size="10px" fill="#000" opacity="1">N.B.</text></g></g><path class="foreground" aria-hidden="true" d="" pointer-events="none" display="none"/></g></g></g><path class="foreground" aria-hidden="true" d="" display="none"/></g><g transform="translate(0,319)"><path class="background" aria-hidden="true" d="M0,0h150v150h-150Z"/><g><g class="mark-arc role-mark child_layer_0_marks" role="graphics-object" aria-roledescription="arc mark container"><path aria-label="value: 0.677; Metric: coordination" role="graphics-symbol" aria-roledescription="arc mark" transform="translate(75,75)" d="M69.749,97.648A120,120,0,0,0,119.41,-11.889L0,0Z" fill="#f58518"/><path aria-label="value: 0.566; Metric: waiting_time" role="graphics-symbol" aria-roledescription="arc mark" transform="translate(75,75)" d="M0,-120A120,120,0,0,0,-92.31,-76.674L0,0Z" fill="#54a24b"/><path aria-label="value: 0.949; Metric: care_access" role="graphics-symbol" aria-roledescription="arc mark" transform="translate(75,75)" d="M119.41,-11.889A120,120,0,0,0,0,-120L0,0Z" fill="#4c78a8"/><path aria-label="value: 0.895; Metric: provider_access" role="graphics-symbol" aria-roledescription="arc mark" transform="translate(75,75)" d="M-83.326,86.352A120,120,0,0,0,69.749,97.648L0,0Z" fill="#e45756"/><path aria-label="value: 0.965; Metric: unmet_needs" role="graphics-symbol" aria-roledescription="arc mark" transform="translate(75,75)" d="M-92.31,-76.674A120,120,0,0,0,-83.326,86.352L0,0Z" fill="#72b7b2"/></g><g class="mark-text role-mark child_layer_1_marks" role="graphics-object" aria-roledescription="text mark container"><text aria-label="value: 0.677; Metric: coordination" role="graphics-symbol" aria-roledescription="text mark" text-anchor="middle" transform="translate(202.50786639455634,135.80781960520545)" font-family="sans-serif" font-size="10px" fill="#f58518">0.677</text><text aria-label="value: 0.566; Metric: waiting_time" role="graphics-symbol" aria-roledescription="text mark" text-anchor="middle" transform="translate(15.516642621916745,-48.734881524508594)" font-family="sans-serif" font-size="10px" fill="#54a24b">0.566</text><text aria-label="value: 0.949; Metric: care_access" role="graphics-symbol" aria-roledescription="text mark" text-anchor="middle" transform="translate(168.96294725069117,-25.783257532050087)" font-family="sans-serif" font-size="10px" fill="#4c78a8">0.949</text><text aria-label="value: 0.895; Metric: provider_access" role="graphics-symbol" aria-roledescription="text mark" text-anchor="middle" transform="translate(64.69757826920102,217.62041436151364)" font-family="sans-serif" font-size="10px" fill="#e45756">0.895</text><text aria-label="value: 0.965; Metric: unmet_needs" role="graphics-symbol" aria-roledescription="text mark" text-anchor="middle" transform="translate(-64.78793649337109,85.70277942857294)" font-family="sans-serif" font-size="10px" fill="#72b7b2">0.965</text></g><g class="mark-group role-title"><g transform="translate(75,-76.7348815245086)"><path class="background" aria-hidden="true" d="M0,0h0v0h0Z" pointer-events="none"/><g><g class="mark-text role-title-text" role="graphics-symbol" aria-roledescription="title" aria-label="Title text 'N.L.'" pointer-events="none"><text text-anchor="middle" transform="translate(0,8)" font-family="sans-serif" font-size="10px" fill="#000" opacity="1">N.L.</text></g></g><path class="foreground" aria-hidden="true" d="" pointer-events="none" display="none"/></g></g></g><path class="foreground" aria-hidden="true" d="" display="none"/></g><g transform="translate(319,319)"><path class="background" aria-hidden="true" d="M0,0h150v150h-150Z"/><g><g class="mark-arc role-mark child_layer_0_marks" role="graphics-object" aria-roledescription="arc mark container"><path aria-label="value: 0.625; Metric: coordination" role="graphics-symbol" aria-roledescription="arc mark" transform="translate(75,75)" d="M71.826,96.13A120,120,0,0,0,119.513,-10.797L0,0Z" fill="#f58518"/><path aria-label="value: 0.498; Metric: waiting_time" role="graphics-symbol" aria-roledescription="arc mark" transform="translate(75,75)" d="M0,-120A120,120,0,0,0,-87.088,-82.557L0,0Z" fill="#54a24b"/><path aria-label="value: 0.908; Metric: care_access" role="graphics-symbol" aria-roledescription="arc mark" transform="translate(75,75)" d="M119.513,-10.797A120,120,0,0,0,0,-120L0,0Z" fill="#4c78a8"/><path aria-label="value: 0.887; Metric: provider_access" role="graphics-symbol" aria-roledescription="arc mark" transform="translate(75,75)" d="M-86.48,83.194A120,120,0,0,0,71.826,96.13L0,0Z" fill="#e45756"/><path aria-label="value: 0.935; Metric: unmet_needs" role="graphics-symbol" aria-roledescription="arc mark" transform="translate(75,75)" d="M-87.088,-82.557A120,120,0,0,0,-86.48,83.194L0,0Z" fill="#72b7b2"/></g><g class="mark-text role-mark child_layer_1_marks" role="graphics-object" aria-roledescription="text mark container"><text aria-label="value: 0.625; Metric: coordination" role="graphics-symbol" aria-roledescription="text mark" text-anchor="middle" transform="translate(202.86074328176068,135.0230683796978)" font-family="sans-serif" font-size="10px" fill="#f58518">0.625</text><text aria-label="value: 0.498; Metric: waiting_time" role="graphics-symbol" aria-roledescription="text mark" text-anchor="middle" transform="translate(19.70221276100834,-50.616308166854225)" font-family="sans-serif" font-size="10px" fill="#54a24b">0.498</text><text aria-label="value: 0.908; Metric: care_access" role="graphics-symbol" aria-roledescription="text mark" text-anchor="middle" transform="translate(169.43642187616553,-25.352611109864483)" font-family="sans-serif" font-size="10px" fill="#4c78a8">0.908</text><text aria-label="value: 0.887; Metric: provider_access" role="graphics-symbol" aria-roledescription="text mark" text-anchor="middle" transform="translate(63.59756559580408,217.53488628173963)" font-family="sans-serif" font-size="10px" fill="#e45756">0.887</text><text aria-label="value: 0.935; Metric: unmet_needs" role="graphics-symbol" aria-roledescription="text mark" text-anchor="middle" transform="translate(-64.99905762380357,78.51367737630834)" font-family="sans-serif" font-size="10px" fill="#72b7b2">0.935</text></g><g class="mark-group role-title"><g transform="translate(75,-78.61630816685422)"><path class="background" aria-hidden="true" d="M0,0h0v0h0Z" pointer-events="none"/><g><g class="mark-text role-title-text" role="graphics-symbol" aria-roledescription="title" aria-label="Title text 'N.S.'" pointer-events="none"><text text-anchor="middle" transform="translate(0,8)" font-family="sans-serif" font-size="10px" fill="#000" opacity="1">N.S.</text></g></g><path class="foreground" aria-hidden="true" d="" pointer-events="none" display="none"/></g></g></g><path class="foreground" aria-hidden="true" d="" display="none"/></g><g transform="translate(638,319)"><path class="background" aria-hidden="true" d="M0,0h150v150h-150Z"/><g><g class="mark-arc role-mark child_layer_0_marks" role="graphics-object" aria-roledescription="arc mark container"><path aria-label="value: 0.588; Metric: coordination" role="graphics-symbol" aria-roledescription="arc mark" transform="translate(75,75)" d="M83.802,85.891A120,120,0,0,0,119.115,-14.55L0,0Z" fill="#f58518"/><path aria-label="value: 0.639; Metric: waiting_time" role="graphics-symbol" aria-roledescription="arc mark" transform="translate(75,75)" d="M0,-120A120,120,0,0,0,-100.911,-64.938L0,0Z" fill="#54a24b"/><path aria-label="value: 0.927; Metric: care_access" role="graphics-symbol" aria-roledescription="arc mark" transform="translate(75,75)" d="M119.115,-14.55A120,120,0,0,0,0,-120L0,0Z" fill="#4c78a8"/><path aria-label="value: 0.913; Metric: provider_access" role="graphics-symbol" aria-roledescription="arc mark" transform="translate(75,75)" d="M-73.03,95.219A120,120,0,0,0,83.802,85.891L0,0Z" fill="#e45756"/><path aria-label="value: 0.952; Metric: unmet_needs" role="graphics-symbol" aria-roledescription="arc mark" transform="translate(75,75)" d="M-100.911,-64.938A120,120,0,0,0,-73.03,95.219L0,0Z" fill="#72b7b2"/></g><g class="mark-text role-mark child_layer_1_marks" role="graphics-object" aria-roledescription="text mark container"><text aria-label="value: 0.588; Metric: coordination" role="graphics-symbol" aria-roledescription="text mark" text-anchor="middle" transform="translate(207.07510544518027,124.43454017910062)" font-family="sans-serif" font-size="10px" fill="#f58518">0.588</text><text aria-label="value: 0.639; Metric: waiting_time" role="graphics-symbol" aria-roledescription="text mark" text-anchor="middle" transform="translate(7.942254995044735,-44.89531657004021)" font-family="sans-serif" font-size="10px" fill="#54a24b">0.639</text><text aria-label="value: 0.927; Metric: care_access" role="graphics-symbol" aria-roledescription="text mark" text-anchor="middle" transform="translate(167.79935966772086,-26.824991510903473)" font-family="sans-serif" font-size="10px" fill="#4c78a8">0.927</text><text aria-label="value: 0.913; Metric: provider_access" role="graphics-symbol" aria-roledescription="text mark" text-anchor="middle" transform="translate(83.31223865295618,217.75302032004996)" font-family="sans-serif" font-size="10px" fill="#e45756">0.913</text><text aria-label="value: 0.952; Metric: unmet_needs" role="graphics-symbol" aria-roledescription="text mark" text-anchor="middle" transform="translate(-62.92554744082676,102.01131739718271)" font-family="sans-serif" font-size="10px" fill="#72b7b2">0.952</text></g><g class="mark-group role-title"><g transform="translate(75,-72.89531657004021)"><path class="background" aria-hidden="true" d="M0,0h0v0h0Z" pointer-events="none"/><g><g class="mark-text role-title-text" role="graphics-symbol" aria-roledescription="title" aria-label="Title text 'Ontario'" pointer-events="none"><text text-anchor="middle" transform="translate(0,8)" font-family="sans-serif" font-size="10px" fill="#000" opacity="1">Ontario</text></g></g><path class="foreground" aria-hidden="true" d="" pointer-events="none" display="none"/></g></g></g><path class="foreground" aria-hidden="true" d="" display="none"/></g><g transform="translate(957,319)"><path class="background" aria-hidden="true" d="M0,0h150v150h-150Z"/><g><g class="mark-arc role-mark child_layer_0_marks" role="graphics-object" aria-roledescription="arc mark container"><path aria-label="value: 0.682; Metric: coordination" role="graphics-symbol" aria-roledescription="arc mark" transform="translate(75,75)" d="M-10.818,119.511A120,120,0,0,0,114.889,34.647L0,0Z" fill="#f58518"/><path aria-label="value: 0.611; Metric: waiting_time" role="graphics-symbol" aria-roledescription="arc mark" transform="translate(75,75)" d="M0,-120A120,120,0,0,0,-112.927,-40.59L0,0Z" fill="#54a24b"/><path aria-label="value: 0.929; Metric: care_access" role="graphics-symbol" aria-roledescription="arc mark" transform="translate(75,75)" d="M114.889,34.647A120,120,0,0,0,0,-120L0,0Z" fill="#4c78a8"/><path aria-label="value: 0.91; Metric: provider_access" role="graphics-symbol" aria-roledescription="arc mark" transform="translate(75,75)" d="M-112.927,-40.59A120,120,0,0,0,-10.818,119.511L0,0Z" fill="#e45756"/></g><g class="mark-text role-mark child_layer_1_marks" role="graphics-object" aria-roledescription="text mark container"><text aria-label="value: 0.682; Metric: coordination" role="graphics-symbol" aria-roledescription="text mark" text-anchor="middle" transform="translate(153.33356848067257,194.0338401031517)" font-family="sans-serif" font-size="10px" fill="#f58518">0.682</text><text aria-label="value: 0.611; Metric: waiting_time" role="graphics-symbol" aria-roledescription="text mark" text-anchor="middle" transform="translate(-5.530604409648689,-36.51996224858212)" font-family="sans-serif" font-size="10px" fill="#54a24b">0.611</text><text aria-label="value: 0.929; Metric: care_access" role="graphics-symbol" aria-roledescription="text mark" text-anchor="middle" transform="translate(187.38104873725985,-5.489519610030257)" font-family="sans-serif" font-size="10px" fill="#4c78a8">0.929</text><text aria-label="value: 0.91; Metric: provider_access" role="graphics-symbol" aria-roledescription="text mark" text-anchor="middle" transform="translate(-43.0370613984489,153.28115392592497)" font-family="sans-serif" font-size="10px" fill="#e45756">0.91</text></g><g class="mark-group role-title"><g transform="translate(75,-65)"><path class="background" aria-hidden="true" d="M0,0h0v0h0Z" pointer-events="none"/><g><g class="mark-text role-title-text" role="graphics-symbol" aria-roledescription="title" aria-label="Title text 'P.E.I.'" pointer-events="none"><text text-anchor="middle" transform="translate(0,8)" font-family="sans-serif" font-size="10px" fill="#000" opacity="1">P.E.I.</text></g></g><path class="foreground" aria-hidden="true" d="" pointer-events="none" display="none"/></g></g></g><path class="foreground" aria-hidden="true" d="" display="none"/></g><g transform="translate(0,638)"><path class="background" aria-hidden="true" d="M0,0h150v150h-150Z"/><g><g class="mark-arc role-mark child_layer_0_marks" role="graphics-object" aria-roledescription="arc mark container"><path aria-label="value: 0.557; Metric: coordination" role="graphics-symbol" aria-roledescription="arc mark" transform="translate(75,75)" d="M83.317,86.361A120,120,0,0,0,118.872,-16.412L0,0Z" fill="#f58518"/><path aria-label="value: 0.532; Metric: waiting_time" role="graphics-symbol" aria-roledescription="arc mark" transform="translate(75,75)" d="M0,-120A120,120,0,0,0,-93.874,-74.751L0,0Z" fill="#54a24b"/><path aria-label="value: 0.849; Metric: care_access" role="graphics-symbol" aria-roledescription="arc mark" transform="translate(75,75)" d="M118.872,-16.412A120,120,0,0,0,0,-120L0,0Z" fill="#4c78a8"/><path aria-label="value: 0.83; Metric: provider_access" role="graphics-symbol" aria-roledescription="arc mark" transform="translate(75,75)" d="M-71.09,96.675A120,120,0,0,0,83.317,86.361L0,0Z" fill="#e45756"/><path aria-label="value: 0.953; Metric: unmet_needs" role="graphics-symbol" aria-roledescription="arc mark" transform="translate(75,75)" d="M-93.874,-74.751A120,120,0,0,0,-71.09,96.675L0,0Z" fill="#72b7b2"/></g><g class="mark-text role-mark child_layer_1_marks" role="graphics-object" aria-roledescription="text mark container"><text aria-label="value: 0.557; Metric: coordination" role="graphics-symbol" aria-roledescription="text mark" text-anchor="middle" transform="translate(207.30597103771373,123.77259035457419)" font-family="sans-serif" font-size="10px" fill="#f58518">0.557</text><text aria-label="value: 0.532; Metric: waiting_time" role="graphics-symbol" aria-roledescription="text mark" text-anchor="middle" transform="translate(14.210639912302383,-48.1136539004728)" font-family="sans-serif" font-size="10px" fill="#54a24b">0.532</text><text aria-label="value: 0.849; Metric: care_access" role="graphics-symbol" aria-roledescription="text mark" text-anchor="middle" transform="translate(166.97655496597764,-27.547682762770762)" font-family="sans-serif" font-size="10px" fill="#4c78a8">0.849</text><text aria-label="value: 0.83; Metric: provider_access" role="graphics-symbol" aria-roledescription="text mark" text-anchor="middle" transform="translate(84.33089437218018,217.68870537812)" font-family="sans-serif" font-size="10px" fill="#e45756">0.83</text><text aria-label="value: 0.953; Metric: unmet_needs" role="graphics-symbol" aria-roledescription="text mark" text-anchor="middle" transform="translate(-63.779675895309595,96.44455362411423)" font-family="sans-serif" font-size="10px" fill="#72b7b2">0.953</text></g><g class="mark-group role-title"><g transform="translate(75,-76.1136539004728)"><path class="background" aria-hidden="true" d="M0,0h0v0h0Z" pointer-events="none"/><g><g class="mark-text role-title-text" role="graphics-symbol" aria-roledescription="title" aria-label="Title text 'Quebec'" pointer-events="none"><text text-anchor="middle" transform="translate(0,8)" font-family="sans-serif" font-size="10px" fill="#000" opacity="1">Quebec</text></g></g><path class="foreground" aria-hidden="true" d="" pointer-events="none" display="none"/></g></g></g><path class="foreground" aria-hidden="true" d="" display="none"/></g><g transform="translate(319,638)"><path class="background" aria-hidden="true" d="M0,0h150v150h-150Z"/><g><g class="mark-arc role-mark child_layer_0_marks" role="graphics-object" aria-roledescription="arc mark container"><path aria-label="value: 0.614; Metric: coordination" role="graphics-symbol" aria-roledescription="arc mark" transform="translate(75,75)" d="M2.951,119.964A120,120,0,0,0,115.06,34.076L0,0Z" fill="#f58518"/><path aria-label="value: 0.67; Metric: waiting_time" role="graphics-symbol" aria-roledescription="arc mark" transform="translate(75,75)" d="M0,-120A120,120,0,0,0,-117.661,-23.577L0,0Z" fill="#54a24b"/><path aria-label="value: 0.907; Metric: care_access" role="graphics-symbol" aria-roledescription="arc mark" transform="translate(75,75)" d="M115.06,34.076A120,120,0,0,0,0,-120L0,0Z" fill="#4c78a8"/><path aria-label="value: 0.875; Metric: provider_access" role="graphics-symbol" aria-roledescription="arc mark" transform="translate(75,75)" d="M-117.661,-23.577A120,120,0,0,0,2.951,119.964L0,0Z" fill="#e45756"/></g><g class="mark-text role-mark child_layer_1_marks" role="graphics-object" aria-roledescription="text mark container"><text aria-label="value: 0.614; Metric: coordination" role="graphics-symbol" aria-roledescription="text mark" text-anchor="middle" transform="translate(160.14121897757238,189.13493074192772)" font-family="sans-serif" font-size="10px" fill="#f58518">0.614</text><text aria-label="value: 0.67; Metric: waiting_time" role="graphics-symbol" aria-roledescription="text mark" text-anchor="middle" transform="translate(-13.738801097922845,-30.284002418193268)" font-family="sans-serif" font-size="10px" fill="#54a24b">0.67</text><text aria-label="value: 0.907; Metric: care_access" role="graphics-symbol" aria-roledescription="text mark" text-anchor="middle" transform="translate(187.1733879726271,-5.7683175833350475)" font-family="sans-serif" font-size="10px" fill="#4c78a8">0.907</text><text aria-label="value: 0.875; Metric: provider_access" role="graphics-symbol" aria-roledescription="text mark" text-anchor="middle" transform="translate(-32.184724360749996,168.06350461596554)" font-family="sans-serif" font-size="10px" fill="#e45756">0.875</text></g><g class="mark-group role-title"><g transform="translate(75,-65)"><path class="background" aria-hidden="true" d="M0,0h0v0h0Z" pointer-events="none"/><g><g class="mark-text role-title-text" role="graphics-symbol" aria-roledescription="title" aria-label="Title text 'Sask.'" pointer-events="none"><text text-anchor="middle" transform="translate(0,8)" font-family="sans-serif" font-size="10px" fill="#000" opacity="1">Sask.</text></g></g><path class="foreground" aria-hidden="true" d="" pointer-events="none" display="none"/></g></g></g><path class="foreground" aria-hidden="true" d="" display="none"/></g><g transform="translate(638,638)"><path class="background" aria-hidden="true" d="M0,0h150v150h-150Z"/><g><g class="mark-arc role-mark child_layer_0_marks" role="graphics-object" aria-roledescription="arc mark container"><path aria-label="value: 0.495; Metric: coordination" role="graphics-symbol" aria-roledescription="arc mark" transform="translate(75,75)" d="M-40.259,113.045A120,120,0,0,0,93.552,75.153L0,0Z" fill="#f58518"/><path aria-label="value: 0.544; Metric: waiting_time" role="graphics-symbol" aria-roledescription="arc mark" transform="translate(75,75)" d="M0,-120A120,120,0,0,0,-117.307,-25.282L0,0Z" fill="#54a24b"/><path aria-label="value: 0.9; Metric: care_access" role="graphics-symbol" aria-roledescription="arc mark" transform="translate(75,75)" d="M93.552,75.153A120,120,0,0,0,0,-120L0,0Z" fill="#4c78a8"/><path aria-label="value: 0.577; Metric: provider_access" role="graphics-symbol" aria-roledescription="arc mark" transform="translate(75,75)" d="M-117.307,-25.282A120,120,0,0,0,-40.259,113.045L0,0Z" fill="#e45756"/></g><g class="mark-text role-mark child_layer_1_marks" role="graphics-object" aria-roledescription="text mark container"><text aria-label="value: 0.495; Metric: coordination" role="graphics-symbol" aria-roledescription="text mark" text-anchor="middle" transform="translate(113.14465165935522,212.7033241972389)" font-family="sans-serif" font-size="10px" fill="#f58518">0.495</text><text aria-label="value: 0.544; Metric: waiting_time" role="graphics-symbol" aria-roledescription="text mark" text-anchor="middle" transform="translate(-12.950799621390004,-30.925005604581457)" font-family="sans-serif" font-size="10px" fill="#54a24b">0.544</text><text aria-label="value: 0.9; Metric: care_access" role="graphics-symbol" aria-roledescription="text mark" text-anchor="middle" transform="translate(201.2437941908691,17.48137122923645)" font-family="sans-serif" font-size="10px" fill="#4c78a8">0.9</text><text aria-label="value: 0.577; Metric: provider_access" role="graphics-symbol" aria-roledescription="text mark" text-anchor="middle" transform="translate(-47.30713469049172,146.12462699935986)" font-family="sans-serif" font-size="10px" fill="#e45756">0.577</text></g><g class="mark-group role-title"><g transform="translate(75,-65)"><path class="background" aria-hidden="true" d="M0,0h0v0h0Z" pointer-events="none"/><g><g class="mark-text role-title-text" role="graphics-symbol" aria-roledescription="title" aria-label="Title text 'Terrs.'" pointer-events="none"><text text-anchor="middle" transform="translate(0,8)" font-family="sans-serif" font-size="10px" fill="#000" opacity="1">Terrs.</text></g></g><path class="foreground" aria-hidden="true" d="" pointer-events="none" display="none"/></g></g></g><path class="foreground" aria-hidden="true" d="" display="none"/></g></g><g class="mark-group role-legend" role="graphics-symbol" aria-roledescription="legend" aria-label="Symbol legend titled 'Metric' for fill color with 5 values: care_access, coordination, provider_access, unmet_needs, waiting_time"><g transform="translate(1191,0)"><path class="background" aria-hidden="true" d="M0,0h89v79h-89Z" pointer-events="none"/><g><g class="mark-group role-legend-entry"><g transform="translate(0,16)"><path class="background" aria-hidden="true" d="M0,0h0v0h0Z" pointer-events="none"/><g><g class="mark-group role-scope" role="graphics-object" aria-roledescription="group mark container"><g transform="translate(0,0)"><path class="background" aria-hidden="true" d="M0,0h88.8125v11h-88.8125Z" pointer-events="none" opacity="1"/><g><g class="mark-symbol role-legend-symbol" pointer-events="none"><path transform="translate(6,6)" d="M5,0A5,5,0,1,1,-5,0A5,5,0,1,1,5,0" fill="#4c78a8" stroke-width="1.5" opacity="1"/></g><g class="mark-text role-legend-label" pointer-events="none"><text text-anchor="start" transform="translate(16,9)" font-family="sans-serif" font-size="10px" fill="#000" opacity="1">care_access</text></g></g><path class="foreground" aria-hidden="true" d="" pointer-events="none" display="none"/></g><g transform="translate(0,13)"><path class="background" aria-hidden="true" d="M0,0h88.8125v11h-88.8125Z" pointer-events="none" opacity="1"/><g><g class="mark-symbol role-legend-symbol" pointer-events="none"><path transform="translate(6,6)" d="M5,0A5,5,0,1,1,-5,0A5,5,0,1,1,5,0" fill="#f58518" stroke-width="1.5" opacity="1"/></g><g class="mark-text role-legend-label" pointer-events="none"><text text-anchor="start" transform="translate(16,9)" font-family="sans-serif" font-size="10px" fill="#000" opacity="1">coordination</text></g></g><path class="foreground" aria-hidden="true" d="" pointer-events="none" display="none"/></g><g transform="translate(0,26)"><path class="background" aria-hidden="true" d="M0,0h88.8125v11h-88.8125Z" pointer-events="none" opacity="1"/><g><g class="mark-symbol role-legend-symbol" pointer-events="none"><path transform="translate(6,6)" d="M5,0A5,5,0,1,1,-5,0A5,5,0,1,1,5,0" fill="#e45756" stroke-width="1.5" opacity="1"/></g><g class="mark-text role-legend-label" pointer-events="none"><text text-anchor="start" transform="translate(16,9)" font-family="sans-serif" font-size="10px" fill="#000" opacity="1">provider_access</text></g></g><path class="foreground" aria-hidden="true" d="" pointer-events="none" display="none"/></g><g transform="translate(0,39)"><path class="background" aria-hidden="true" d="M0,0h88.8125v11h-88.8125Z" pointer-events="none" opacity="1"/><g><g class="mark-symbol role-legend-symbol" pointer-events="none"><path transform="translate(6,6)" d="M5,0A5,5,0,1,1,-5,0A5,5,0,1,1,5,0" fill="#72b7b2" stroke-width="1.5" opacity="1"/></g><g class="mark-text role-legend-label" pointer-events="none"><text text-anchor="start" transform="translate(16,9)" font-family="sans-serif" font-size="10px" fill="#000" opacity="1">unmet_needs</text></g></g><path class="foreground" aria-hidden="true" d="" pointer-events="none" display="none"/></g><g transform="translate(0,52)"><path class="background" aria-hidden="true" d="M0,0h88.8125v11h-88.8125Z" pointer-events="none" opacity="1"/><g><g class="mark-symbol role-legend-symbol" pointer-events="none"><path transform="translate(6,6)" d="M5,0A5,5,0,1,1,-5,0A5,5,0,1,1,5,0" fill="#54a24b" stroke-width="1.5" opacity="1"/></g><g class="mark-text role-legend-label" pointer-events="none"><text text-anchor="start" transform="translate(16,9)" font-family="sans-serif" font-size="10px" fill="#000" opacity="1">waiting_time</text></g></g><path class="foreground" aria-hidden="true" d="" pointer-events="none" display="none"/></g></g></g><path class="foreground" aria-hidden="true" d="" pointer-events="none" display="none"/></g></g><g class="mark-text role-legend-title" pointer-events="none"><text text-anchor="start" transform="translate(0,9)" font-family="sans-serif" font-size="11px" font-weight="bold" fill="#000" opacity="1">Metric</text></g></g><path class="foreground" aria-hidden="true" d="" pointer-events="none" display="none"/></g></g><g class="mark-group role-title"><g transform="translate(-77.30014352462109,-117)"><path class="background" aria-hidden="true" d="M0,0h0v0h0Z" pointer-events="none"/><g><g class="mark-text role-title-text" role="graphics-symbol" aria-roledescription="title" aria-label="Title text 'Survey Metric Stats per Province'" pointer-events="none"><text text-anchor="start" transform="translate(0,10)" font-family="sans-serif" font-size="13px" font-weight="bold" fill="#000" opacity="1">Survey Metric Stats per Province</text></g></g><path class="foreground" aria-hidden="true" d="" pointer-events="none" display="none"/></g></g></g><path class="foreground" aria-hidden="true" d="" display="none"/></g></g></g></svg>